solid CATIA STL
  facet normal  0.000000e+000  1.000000e+000  0.000000e+000
    outer loop
      vertex -1.421085e-014  4.000000e+001  9.000000e-001
      vertex  1.450000e+002  4.000000e+001  9.000000e-001
      vertex  9.000000e-001  4.000000e+001  0.000000e+000
    endloop
  endfacet
  facet normal  0.000000e+000  1.000000e+000  0.000000e+000
    outer loop
      vertex  9.000000e-001  4.000000e+001  0.000000e+000
      vertex  1.450000e+002  4.000000e+001  9.000000e-001
      vertex  1.441000e+002  4.000000e+001  0.000000e+000
    endloop
  endfacet
  facet normal  0.000000e+000 -1.000000e+000  0.000000e+000
    outer loop
      vertex  1.450000e+002  0.000000e+000  9.000000e-001
      vertex -1.421085e-014  0.000000e+000  9.000000e-001
      vertex  1.441000e+002  0.000000e+000  0.000000e+000
    endloop
  endfacet
  facet normal  0.000000e+000 -1.000000e+000  0.000000e+000
    outer loop
      vertex  1.441000e+002  0.000000e+000  0.000000e+000
      vertex -1.421085e-014  0.000000e+000  9.000000e-001
      vertex  9.000000e-001  0.000000e+000  0.000000e+000
    endloop
  endfacet
  facet normal  -0.000000e+000 -2.018587e-017 -1.000000e+000
    outer loop
      vertex  9.000000e-001  4.000000e+001  0.000000e+000
      vertex  1.441000e+002  4.000000e+001  0.000000e+000
      vertex  1.020000e+002  3.450000e+001  1.110223e-016
    endloop
  endfacet
  facet normal  -0.000000e+000 -2.018587e-017 -1.000000e+000
    outer loop
      vertex  9.000000e-001  4.000000e+001  0.000000e+000
      vertex  1.020000e+002  3.450000e+001  1.110223e-016
      vertex  3.500000e+001  3.450000e+001  1.110223e-016
    endloop
  endfacet
  facet normal  3.255786e-018  0.000000e+000 -9.999999e-001
    outer loop
      vertex  9.000000e-001  4.000000e+001  0.000000e+000
      vertex  3.500000e+001  3.450000e+001  1.110223e-016
      vertex  3.500000e+001  5.500000e+000  1.110223e-016
    endloop
  endfacet
  facet normal  3.255786e-018  0.000000e+000 -1.000000e+000
    outer loop
      vertex  9.000000e-001  4.000000e+001  0.000000e+000
      vertex  3.500000e+001  5.500000e+000  1.110223e-016
      vertex  9.000000e-001  0.000000e+000  0.000000e+000
    endloop
  endfacet
  facet normal -4.322171e-017  2.742934e-017 -1.000000e+000
    outer loop
      vertex  1.020000e+002  5.500000e+000  1.110223e-016
      vertex  1.173143e+002  2.558396e+001  0.000000e+000
      vertex  1.166751e+002  2.457666e+001  0.000000e+000
    endloop
  endfacet
  facet normal -1.948353e-017  9.168285e-018 -1.000000e+000
    outer loop
      vertex  1.020000e+002  5.500000e+000  1.110223e-016
      vertex  1.166751e+002  2.457666e+001  0.000000e+000
      vertex  1.161671e+002  2.349718e+001  0.000000e+000
    endloop
  endfacet
  facet normal -1.334478e-017  4.335945e-018 -1.000000e+000
    outer loop
      vertex  1.020000e+002  5.500000e+000  1.110223e-016
      vertex  1.161671e+002  2.349718e+001  0.000000e+000
      vertex  1.157985e+002  2.236255e+001  0.000000e+000
    endloop
  endfacet
  facet normal -1.049185e-017  2.001420e-018 -1.000000e+000
    outer loop
      vertex  1.020000e+002  5.500000e+000  1.110223e-016
      vertex  1.157985e+002  2.236255e+001  0.000000e+000
      vertex  1.155749e+002  2.119067e+001  0.000000e+000
    endloop
  endfacet
  facet normal -8.819899e-018  5.549207e-019 -9.999999e-001
    outer loop
      vertex  1.020000e+002  5.500000e+000  1.110223e-016
      vertex  1.155749e+002  2.119067e+001  0.000000e+000
      vertex  1.155000e+002  2.000000e+001  0.000000e+000
    endloop
  endfacet
  facet normal -7.703305e-018 -4.846681e-019 -1.000000e+000
    outer loop
      vertex  1.020000e+002  5.500000e+000  1.110223e-016
      vertex  1.155000e+002  2.000000e+001  0.000000e+000
      vertex  1.155749e+002  1.880933e+001  0.000000e+000
    endloop
  endfacet
  facet normal -6.889891e-018 -1.314313e-018 -1.000000e+000
    outer loop
      vertex  1.020000e+002  5.500000e+000  1.110223e-016
      vertex  1.155749e+002  1.880933e+001  0.000000e+000
      vertex  1.157985e+002  1.763745e+001  0.000000e+000
    endloop
  endfacet
  facet normal -6.257554e-018 -2.033186e-018 -9.999999e-001
    outer loop
      vertex  1.020000e+002  5.500000e+000  1.110223e-016
      vertex  1.157985e+002  1.763745e+001  0.000000e+000
      vertex  1.161671e+002  1.650282e+001  0.000000e+000
    endloop
  endfacet
  facet normal -5.739167e-018 -2.700656e-018 -1.000000e+000
    outer loop
      vertex  1.020000e+002  5.500000e+000  1.110223e-016
      vertex  1.161671e+002  1.650282e+001  0.000000e+000
      vertex  1.166751e+002  1.542334e+001  0.000000e+000
    endloop
  endfacet
  facet normal -5.293676e-018 -3.359469e-018 -1.000000e+000
    outer loop
      vertex  1.020000e+002  5.500000e+000  1.110223e-016
      vertex  1.166751e+002  1.542334e+001  0.000000e+000
      vertex  1.173143e+002  1.441604e+001  0.000000e+000
    endloop
  endfacet
  facet normal -4.892935e-018 -4.047788e-018 -9.999999e-001
    outer loop
      vertex  1.020000e+002  5.500000e+000  1.110223e-016
      vertex  1.173143e+002  1.441604e+001  0.000000e+000
      vertex  1.180748e+002  1.349680e+001  0.000000e+000
    endloop
  endfacet
  facet normal -4.514839e-018 -4.807819e-018 -1.000000e+000
    outer loop
      vertex  1.020000e+002  5.500000e+000  1.110223e-016
      vertex  1.180748e+002  1.349680e+001  0.000000e+000
      vertex  1.189445e+002  1.268012e+001  0.000000e+000
    endloop
  endfacet
  facet normal -4.138446e-018 -5.696073e-018 -1.000000e+000
    outer loop
      vertex  1.020000e+002  5.500000e+000  1.110223e-016
      vertex  1.189445e+002  1.268012e+001  0.000000e+000
      vertex  1.199096e+002  1.197888e+001  0.000000e+000
    endloop
  endfacet
  facet normal -3.738796e-018 -6.800829e-018 -1.000000e+000
    outer loop
      vertex  1.020000e+002  5.500000e+000  1.110223e-016
      vertex  1.199096e+002  1.197888e+001  0.000000e+000
      vertex  1.209551e+002  1.140414e+001  0.000000e+000
    endloop
  endfacet
  facet normal -3.278157e-018 -8.279697e-018 -9.999999e-001
    outer loop
      vertex  1.020000e+002  5.500000e+000  1.110223e-016
      vertex  1.209551e+002  1.140414e+001  0.000000e+000
      vertex  1.220643e+002  1.096496e+001  0.000000e+000
    endloop
  endfacet
  facet normal -2.685006e-018 -1.045742e-017 -1.000000e+000
    outer loop
      vertex  1.020000e+002  5.500000e+000  1.110223e-016
      vertex  1.220643e+002  1.096496e+001  0.000000e+000
      vertex  1.232199e+002  1.066827e+001  0.000000e+000
    endloop
  endfacet
  facet normal -1.786909e-018 -1.414483e-017 -1.000000e+000
    outer loop
      vertex  1.020000e+002  5.500000e+000  1.110223e-016
      vertex  1.232199e+002  1.066827e+001  0.000000e+000
      vertex  1.244035e+002  1.051875e+001  0.000000e+000
    endloop
  endfacet
  facet normal  0.000000e+000 -2.212152e-017 -1.000000e+000
    outer loop
      vertex  1.020000e+002  5.500000e+000  1.110223e-016
      vertex  1.244035e+002  1.051875e+001  0.000000e+000
      vertex  1.255965e+002  1.051875e+001  0.000000e+000
    endloop
  endfacet
  facet normal -3.423975e-018 -6.023104e-018 -9.999999e-001
    outer loop
      vertex  1.020000e+002  5.500000e+000  1.110223e-016
      vertex  1.255965e+002  1.051875e+001  0.000000e+000
      vertex  1.441000e+002  0.000000e+000  0.000000e+000
    endloop
  endfacet
  facet normal  0.000000e+000  2.018587e-017 -1.000000e+000
    outer loop
      vertex  1.020000e+002  5.500000e+000  1.110223e-016
      vertex  1.441000e+002  0.000000e+000  0.000000e+000
      vertex  9.000000e-001  0.000000e+000  0.000000e+000
    endloop
  endfacet
  facet normal  0.000000e+000  2.018587e-017 -1.000000e+000
    outer loop
      vertex  1.020000e+002  5.500000e+000  1.110223e-016
      vertex  9.000000e-001  0.000000e+000  0.000000e+000
      vertex  3.500000e+001  5.500000e+000  1.110223e-016
    endloop
  endfacet
  facet normal -3.423976e-018  6.023105e-018 -1.000000e+000
    outer loop
      vertex  1.020000e+002  3.450000e+001  1.110223e-016
      vertex  1.441000e+002  4.000000e+001  0.000000e+000
      vertex  1.255965e+002  2.948125e+001  0.000000e+000
    endloop
  endfacet
  facet normal  0.000000e+000  2.212153e-017 -1.000000e+000
    outer loop
      vertex  1.020000e+002  3.450000e+001  1.110223e-016
      vertex  1.255965e+002  2.948125e+001  0.000000e+000
      vertex  1.244035e+002  2.948125e+001  0.000000e+000
    endloop
  endfacet
  facet normal -1.786924e-018  1.414477e-017 -1.000000e+000
    outer loop
      vertex  1.020000e+002  3.450000e+001  1.110223e-016
      vertex  1.244035e+002  2.948125e+001  0.000000e+000
      vertex  1.232199e+002  2.933173e+001  0.000000e+000
    endloop
  endfacet
  facet normal -2.685006e-018  1.045742e-017 -1.000000e+000
    outer loop
      vertex  1.020000e+002  3.450000e+001  1.110223e-016
      vertex  1.232199e+002  2.933173e+001  0.000000e+000
      vertex  1.220643e+002  2.903504e+001  0.000000e+000
    endloop
  endfacet
  facet normal -3.278151e-018  8.279717e-018 -9.999999e-001
    outer loop
      vertex  1.020000e+002  3.450000e+001  1.110223e-016
      vertex  1.220643e+002  2.903504e+001  0.000000e+000
      vertex  1.209551e+002  2.859586e+001  0.000000e+000
    endloop
  endfacet
  facet normal -3.738801e-018  6.800816e-018 -1.000000e+000
    outer loop
      vertex  1.020000e+002  3.450000e+001  1.110223e-016
      vertex  1.209551e+002  2.859586e+001  0.000000e+000
      vertex  1.199096e+002  2.802111e+001  0.000000e+000
    endloop
  endfacet
  facet normal -4.138444e-018  5.696078e-018 -1.000000e+000
    outer loop
      vertex  1.020000e+002  3.450000e+001  1.110223e-016
      vertex  1.199096e+002  2.802111e+001  0.000000e+000
      vertex  1.189445e+002  2.731988e+001  0.000000e+000
    endloop
  endfacet
  facet normal -4.514840e-018  4.807815e-018 -9.999999e-001
    outer loop
      vertex  1.020000e+002  3.450000e+001  1.110223e-016
      vertex  1.189445e+002  2.731988e+001  0.000000e+000
      vertex  1.180748e+002  2.650320e+001  0.000000e+000
    endloop
  endfacet
  facet normal -4.892933e-018  4.047791e-018 -1.000000e+000
    outer loop
      vertex  1.020000e+002  3.450000e+001  1.110223e-016
      vertex  1.180748e+002  2.650320e+001  0.000000e+000
      vertex  1.173143e+002  2.558396e+001  0.000000e+000
    endloop
  endfacet
  facet normal -7.249566e-018  0.000000e+000 -1.000000e+000
    outer loop
      vertex  1.020000e+002  3.450000e+001  1.110223e-016
      vertex  1.173143e+002  2.558396e+001  0.000000e+000
      vertex  1.020000e+002  5.500000e+000  1.110223e-016
    endloop
  endfacet
  facet normal  0.000000e+000  0.000000e+000 -1.000000e+000
    outer loop
      vertex  1.441000e+002  0.000000e+000  0.000000e+000
      vertex  1.255965e+002  1.051875e+001  0.000000e+000
      vertex  1.267801e+002  1.066827e+001  0.000000e+000
    endloop
  endfacet
  facet normal  0.000000e+000  0.000000e+000 -1.000000e+000
    outer loop
      vertex  1.441000e+002  0.000000e+000  0.000000e+000
      vertex  1.267801e+002  1.066827e+001  0.000000e+000
      vertex  1.279357e+002  1.096496e+001  0.000000e+000
    endloop
  endfacet
  facet normal  0.000000e+000  0.000000e+000 -1.000000e+000
    outer loop
      vertex  1.441000e+002  0.000000e+000  0.000000e+000
      vertex  1.279357e+002  1.096496e+001  0.000000e+000
      vertex  1.290449e+002  1.140414e+001  0.000000e+000
    endloop
  endfacet
  facet normal  0.000000e+000  0.000000e+000 -1.000000e+000
    outer loop
      vertex  1.441000e+002  0.000000e+000  0.000000e+000
      vertex  1.290449e+002  1.140414e+001  0.000000e+000
      vertex  1.300903e+002  1.197888e+001  0.000000e+000
    endloop
  endfacet
  facet normal  0.000000e+000  0.000000e+000 -1.000000e+000
    outer loop
      vertex  1.441000e+002  0.000000e+000  0.000000e+000
      vertex  1.300903e+002  1.197888e+001  0.000000e+000
      vertex  1.310555e+002  1.268012e+001  0.000000e+000
    endloop
  endfacet
  facet normal  0.000000e+000  0.000000e+000 -1.000000e+000
    outer loop
      vertex  1.441000e+002  0.000000e+000  0.000000e+000
      vertex  1.310555e+002  1.268012e+001  0.000000e+000
      vertex  1.319252e+002  1.349680e+001  0.000000e+000
    endloop
  endfacet
  facet normal  0.000000e+000  0.000000e+000 -1.000000e+000
    outer loop
      vertex  1.441000e+002  0.000000e+000  0.000000e+000
      vertex  1.319252e+002  1.349680e+001  0.000000e+000
      vertex  1.326857e+002  1.441604e+001  0.000000e+000
    endloop
  endfacet
  facet normal  0.000000e+000  0.000000e+000 -1.000000e+000
    outer loop
      vertex  1.441000e+002  0.000000e+000  0.000000e+000
      vertex  1.326857e+002  1.441604e+001  0.000000e+000
      vertex  1.333249e+002  1.542334e+001  0.000000e+000
    endloop
  endfacet
  facet normal  0.000000e+000  0.000000e+000 -1.000000e+000
    outer loop
      vertex  1.441000e+002  0.000000e+000  0.000000e+000
      vertex  1.333249e+002  1.542334e+001  0.000000e+000
      vertex  1.338329e+002  1.650282e+001  0.000000e+000
    endloop
  endfacet
  facet normal  0.000000e+000  0.000000e+000 -1.000000e+000
    outer loop
      vertex  1.441000e+002  0.000000e+000  0.000000e+000
      vertex  1.338329e+002  1.650282e+001  0.000000e+000
      vertex  1.342015e+002  1.763745e+001  0.000000e+000
    endloop
  endfacet
  facet normal  0.000000e+000  0.000000e+000 -1.000000e+000
    outer loop
      vertex  1.441000e+002  0.000000e+000  0.000000e+000
      vertex  1.342015e+002  1.763745e+001  0.000000e+000
      vertex  1.344251e+002  1.880933e+001  0.000000e+000
    endloop
  endfacet
  facet normal  0.000000e+000  0.000000e+000 -1.000000e+000
    outer loop
      vertex  1.441000e+002  0.000000e+000  0.000000e+000
      vertex  1.344251e+002  1.880933e+001  0.000000e+000
      vertex  1.345000e+002  2.000000e+001  0.000000e+000
    endloop
  endfacet
  facet normal  0.000000e+000  0.000000e+000 -1.000000e+000
    outer loop
      vertex  1.441000e+002  0.000000e+000  0.000000e+000
      vertex  1.345000e+002  2.000000e+001  0.000000e+000
      vertex  1.344251e+002  2.119067e+001  0.000000e+000
    endloop
  endfacet
  facet normal  0.000000e+000  0.000000e+000 -1.000000e+000
    outer loop
      vertex  1.441000e+002  0.000000e+000  0.000000e+000
      vertex  1.344251e+002  2.119067e+001  0.000000e+000
      vertex  1.342015e+002  2.236255e+001  0.000000e+000
    endloop
  endfacet
  facet normal  0.000000e+000  0.000000e+000 -1.000000e+000
    outer loop
      vertex  1.441000e+002  0.000000e+000  0.000000e+000
      vertex  1.342015e+002  2.236255e+001  0.000000e+000
      vertex  1.338329e+002  2.349718e+001  0.000000e+000
    endloop
  endfacet
  facet normal  0.000000e+000  0.000000e+000 -1.000000e+000
    outer loop
      vertex  1.441000e+002  4.000000e+001  0.000000e+000
      vertex  1.441000e+002  0.000000e+000  0.000000e+000
      vertex  1.338329e+002  2.349718e+001  0.000000e+000
    endloop
  endfacet
  facet normal  0.000000e+000  0.000000e+000 -1.000000e+000
    outer loop
      vertex  1.441000e+002  4.000000e+001  0.000000e+000
      vertex  1.338329e+002  2.349718e+001  0.000000e+000
      vertex  1.333249e+002  2.457666e+001  0.000000e+000
    endloop
  endfacet
  facet normal  0.000000e+000  0.000000e+000 -1.000000e+000
    outer loop
      vertex  1.441000e+002  4.000000e+001  0.000000e+000
      vertex  1.333249e+002  2.457666e+001  0.000000e+000
      vertex  1.326857e+002  2.558396e+001  0.000000e+000
    endloop
  endfacet
  facet normal  0.000000e+000  0.000000e+000 -1.000000e+000
    outer loop
      vertex  1.441000e+002  4.000000e+001  0.000000e+000
      vertex  1.326857e+002  2.558396e+001  0.000000e+000
      vertex  1.319252e+002  2.650320e+001  0.000000e+000
    endloop
  endfacet
  facet normal  0.000000e+000  0.000000e+000 -1.000000e+000
    outer loop
      vertex  1.441000e+002  4.000000e+001  0.000000e+000
      vertex  1.319252e+002  2.650320e+001  0.000000e+000
      vertex  1.310555e+002  2.731988e+001  0.000000e+000
    endloop
  endfacet
  facet normal  0.000000e+000  0.000000e+000 -1.000000e+000
    outer loop
      vertex  1.441000e+002  4.000000e+001  0.000000e+000
      vertex  1.310555e+002  2.731988e+001  0.000000e+000
      vertex  1.300903e+002  2.802111e+001  0.000000e+000
    endloop
  endfacet
  facet normal  0.000000e+000  0.000000e+000 -9.999999e-001
    outer loop
      vertex  1.441000e+002  4.000000e+001  0.000000e+000
      vertex  1.300903e+002  2.802111e+001  0.000000e+000
      vertex  1.290449e+002  2.859586e+001  0.000000e+000
    endloop
  endfacet
  facet normal  0.000000e+000  0.000000e+000 -9.999999e-001
    outer loop
      vertex  1.441000e+002  4.000000e+001  0.000000e+000
      vertex  1.290449e+002  2.859586e+001  0.000000e+000
      vertex  1.279357e+002  2.903504e+001  0.000000e+000
    endloop
  endfacet
  facet normal  0.000000e+000  0.000000e+000 -1.000000e+000
    outer loop
      vertex  1.441000e+002  4.000000e+001  0.000000e+000
      vertex  1.279357e+002  2.903504e+001  0.000000e+000
      vertex  1.267801e+002  2.933173e+001  0.000000e+000
    endloop
  endfacet
  facet normal  0.000000e+000  0.000000e+000 -1.000000e+000
    outer loop
      vertex  1.441000e+002  4.000000e+001  0.000000e+000
      vertex  1.267801e+002  2.933173e+001  0.000000e+000
      vertex  1.255965e+002  2.948125e+001  0.000000e+000
    endloop
  endfacet
  facet normal  7.071092e-001  0.000000e+000 -7.071044e-001
    outer loop
      vertex  1.450000e+002  0.000000e+000  9.000000e-001
      vertex  1.441000e+002  0.000000e+000  0.000000e+000
      vertex  1.450000e+002  4.000000e+001  9.000000e-001
    endloop
  endfacet
  facet normal  7.071092e-001  0.000000e+000 -7.071044e-001
    outer loop
      vertex  1.450000e+002  4.000000e+001  9.000000e-001
      vertex  1.441000e+002  0.000000e+000  0.000000e+000
      vertex  1.441000e+002  4.000000e+001  0.000000e+000
    endloop
  endfacet
  facet normal  0.000000e+000  0.000000e+000  1.000000e+000
    outer loop
      vertex -1.421085e-014  4.000000e+001  9.000000e-001
      vertex -1.421085e-014  0.000000e+000  9.000000e-001
      vertex  3.500000e+001  5.500000e+000  9.000000e-001
    endloop
  endfacet
  facet normal  0.000000e+000  -0.000000e+000  1.000000e+000
    outer loop
      vertex -1.421085e-014  4.000000e+001  9.000000e-001
      vertex  3.500000e+001  5.500000e+000  9.000000e-001
      vertex  3.500000e+001  3.450000e+001  9.000000e-001
    endloop
  endfacet
  facet normal  0.000000e+000  -0.000000e+000  1.000000e+000
    outer loop
      vertex -1.421085e-014  4.000000e+001  9.000000e-001
      vertex  3.500000e+001  3.450000e+001  9.000000e-001
      vertex  1.020000e+002  3.450000e+001  9.000000e-001
    endloop
  endfacet
  facet normal  0.000000e+000  -0.000000e+000  1.000000e+000
    outer loop
      vertex -1.421085e-014  4.000000e+001  9.000000e-001
      vertex  1.020000e+002  3.450000e+001  9.000000e-001
      vertex  1.450000e+002  4.000000e+001  9.000000e-001
    endloop
  endfacet
  facet normal  -0.000000e+000  0.000000e+000  1.000000e+000
    outer loop
      vertex  1.020000e+002  5.500000e+000  9.000000e-001
      vertex  3.500000e+001  5.500000e+000  9.000000e-001
      vertex -1.421085e-014  0.000000e+000  9.000000e-001
    endloop
  endfacet
  facet normal  0.000000e+000  0.000000e+000  1.000000e+000
    outer loop
      vertex  1.020000e+002  5.500000e+000  9.000000e-001
      vertex -1.421085e-014  0.000000e+000  9.000000e-001
      vertex  1.450000e+002  0.000000e+000  9.000000e-001
    endloop
  endfacet
  facet normal  0.000000e+000  0.000000e+000  1.000000e+000
    outer loop
      vertex  1.020000e+002  5.500000e+000  9.000000e-001
      vertex  1.450000e+002  0.000000e+000  9.000000e-001
      vertex  1.255965e+002  1.051875e+001  9.000000e-001
    endloop
  endfacet
  facet normal  0.000000e+000  0.000000e+000  1.000000e+000
    outer loop
      vertex  1.020000e+002  5.500000e+000  9.000000e-001
      vertex  1.255965e+002  1.051875e+001  9.000000e-001
      vertex  1.244035e+002  1.051875e+001  9.000000e-001
    endloop
  endfacet
  facet normal  0.000000e+000  0.000000e+000  1.000000e+000
    outer loop
      vertex  1.020000e+002  5.500000e+000  9.000000e-001
      vertex  1.244035e+002  1.051875e+001  9.000000e-001
      vertex  1.232199e+002  1.066827e+001  9.000000e-001
    endloop
  endfacet
  facet normal  0.000000e+000  0.000000e+000  1.000000e+000
    outer loop
      vertex  1.020000e+002  5.500000e+000  9.000000e-001
      vertex  1.232199e+002  1.066827e+001  9.000000e-001
      vertex  1.220643e+002  1.096496e+001  9.000000e-001
    endloop
  endfacet
  facet normal  0.000000e+000  0.000000e+000  9.999999e-001
    outer loop
      vertex  1.020000e+002  5.500000e+000  9.000000e-001
      vertex  1.220643e+002  1.096496e+001  9.000000e-001
      vertex  1.209551e+002  1.140414e+001  9.000000e-001
    endloop
  endfacet
  facet normal  0.000000e+000  0.000000e+000  1.000000e+000
    outer loop
      vertex  1.020000e+002  5.500000e+000  9.000000e-001
      vertex  1.209551e+002  1.140414e+001  9.000000e-001
      vertex  1.199096e+002  1.197888e+001  9.000000e-001
    endloop
  endfacet
  facet normal  0.000000e+000  0.000000e+000  1.000000e+000
    outer loop
      vertex  1.020000e+002  5.500000e+000  9.000000e-001
      vertex  1.199096e+002  1.197888e+001  9.000000e-001
      vertex  1.189445e+002  1.268012e+001  9.000000e-001
    endloop
  endfacet
  facet normal  0.000000e+000  0.000000e+000  1.000000e+000
    outer loop
      vertex  1.020000e+002  5.500000e+000  9.000000e-001
      vertex  1.189445e+002  1.268012e+001  9.000000e-001
      vertex  1.180748e+002  1.349680e+001  9.000000e-001
    endloop
  endfacet
  facet normal  0.000000e+000  0.000000e+000  9.999999e-001
    outer loop
      vertex  1.020000e+002  5.500000e+000  9.000000e-001
      vertex  1.180748e+002  1.349680e+001  9.000000e-001
      vertex  1.173143e+002  1.441604e+001  9.000000e-001
    endloop
  endfacet
  facet normal  0.000000e+000  0.000000e+000  1.000000e+000
    outer loop
      vertex  1.020000e+002  5.500000e+000  9.000000e-001
      vertex  1.173143e+002  1.441604e+001  9.000000e-001
      vertex  1.166751e+002  1.542334e+001  9.000000e-001
    endloop
  endfacet
  facet normal  0.000000e+000  0.000000e+000  1.000000e+000
    outer loop
      vertex  1.020000e+002  5.500000e+000  9.000000e-001
      vertex  1.166751e+002  1.542334e+001  9.000000e-001
      vertex  1.161671e+002  1.650282e+001  9.000000e-001
    endloop
  endfacet
  facet normal  0.000000e+000  0.000000e+000  9.999999e-001
    outer loop
      vertex  1.020000e+002  5.500000e+000  9.000000e-001
      vertex  1.161671e+002  1.650282e+001  9.000000e-001
      vertex  1.157985e+002  1.763745e+001  9.000000e-001
    endloop
  endfacet
  facet normal  0.000000e+000  0.000000e+000  1.000000e+000
    outer loop
      vertex  1.020000e+002  5.500000e+000  9.000000e-001
      vertex  1.157985e+002  1.763745e+001  9.000000e-001
      vertex  1.155749e+002  1.880933e+001  9.000000e-001
    endloop
  endfacet
  facet normal  0.000000e+000  0.000000e+000  1.000000e+000
    outer loop
      vertex  1.020000e+002  5.500000e+000  9.000000e-001
      vertex  1.155749e+002  1.880933e+001  9.000000e-001
      vertex  1.155000e+002  2.000000e+001  9.000000e-001
    endloop
  endfacet
  facet normal  0.000000e+000  -0.000000e+000  1.000000e+000
    outer loop
      vertex  1.020000e+002  5.500000e+000  9.000000e-001
      vertex  1.155000e+002  2.000000e+001  9.000000e-001
      vertex  1.155749e+002  2.119067e+001  9.000000e-001
    endloop
  endfacet
  facet normal  0.000000e+000  -0.000000e+000  1.000000e+000
    outer loop
      vertex  1.020000e+002  5.500000e+000  9.000000e-001
      vertex  1.155749e+002  2.119067e+001  9.000000e-001
      vertex  1.157985e+002  2.236255e+001  9.000000e-001
    endloop
  endfacet
  facet normal  0.000000e+000  -0.000000e+000  1.000000e+000
    outer loop
      vertex  1.020000e+002  5.500000e+000  9.000000e-001
      vertex  1.157985e+002  2.236255e+001  9.000000e-001
      vertex  1.161671e+002  2.349718e+001  9.000000e-001
    endloop
  endfacet
  facet normal  0.000000e+000  -0.000000e+000  1.000000e+000
    outer loop
      vertex  1.020000e+002  5.500000e+000  9.000000e-001
      vertex  1.161671e+002  2.349718e+001  9.000000e-001
      vertex  1.166751e+002  2.457666e+001  9.000000e-001
    endloop
  endfacet
  facet normal  0.000000e+000  -0.000000e+000  1.000000e+000
    outer loop
      vertex  1.020000e+002  5.500000e+000  9.000000e-001
      vertex  1.166751e+002  2.457666e+001  9.000000e-001
      vertex  1.173143e+002  2.558396e+001  9.000000e-001
    endloop
  endfacet
  facet normal  0.000000e+000  0.000000e+000  1.000000e+000
    outer loop
      vertex  1.020000e+002  3.450000e+001  9.000000e-001
      vertex  1.020000e+002  5.500000e+000  9.000000e-001
      vertex  1.173143e+002  2.558396e+001  9.000000e-001
    endloop
  endfacet
  facet normal  0.000000e+000  -0.000000e+000  1.000000e+000
    outer loop
      vertex  1.020000e+002  3.450000e+001  9.000000e-001
      vertex  1.173143e+002  2.558396e+001  9.000000e-001
      vertex  1.180748e+002  2.650320e+001  9.000000e-001
    endloop
  endfacet
  facet normal  0.000000e+000  -0.000000e+000  9.999999e-001
    outer loop
      vertex  1.020000e+002  3.450000e+001  9.000000e-001
      vertex  1.180748e+002  2.650320e+001  9.000000e-001
      vertex  1.189445e+002  2.731988e+001  9.000000e-001
    endloop
  endfacet
  facet normal  0.000000e+000  -0.000000e+000  1.000000e+000
    outer loop
      vertex  1.020000e+002  3.450000e+001  9.000000e-001
      vertex  1.189445e+002  2.731988e+001  9.000000e-001
      vertex  1.199096e+002  2.802111e+001  9.000000e-001
    endloop
  endfacet
  facet normal  0.000000e+000  -0.000000e+000  1.000000e+000
    outer loop
      vertex  1.020000e+002  3.450000e+001  9.000000e-001
      vertex  1.199096e+002  2.802111e+001  9.000000e-001
      vertex  1.209551e+002  2.859586e+001  9.000000e-001
    endloop
  endfacet
  facet normal  0.000000e+000  -0.000000e+000  9.999999e-001
    outer loop
      vertex  1.020000e+002  3.450000e+001  9.000000e-001
      vertex  1.209551e+002  2.859586e+001  9.000000e-001
      vertex  1.220643e+002  2.903504e+001  9.000000e-001
    endloop
  endfacet
  facet normal  0.000000e+000  -0.000000e+000  1.000000e+000
    outer loop
      vertex  1.020000e+002  3.450000e+001  9.000000e-001
      vertex  1.220643e+002  2.903504e+001  9.000000e-001
      vertex  1.232199e+002  2.933173e+001  9.000000e-001
    endloop
  endfacet
  facet normal  0.000000e+000  -0.000000e+000  1.000000e+000
    outer loop
      vertex  1.020000e+002  3.450000e+001  9.000000e-001
      vertex  1.232199e+002  2.933173e+001  9.000000e-001
      vertex  1.244035e+002  2.948125e+001  9.000000e-001
    endloop
  endfacet
  facet normal  0.000000e+000  -0.000000e+000  1.000000e+000
    outer loop
      vertex  1.020000e+002  3.450000e+001  9.000000e-001
      vertex  1.244035e+002  2.948125e+001  9.000000e-001
      vertex  1.255965e+002  2.948125e+001  9.000000e-001
    endloop
  endfacet
  facet normal  0.000000e+000  -0.000000e+000  1.000000e+000
    outer loop
      vertex  1.020000e+002  3.450000e+001  9.000000e-001
      vertex  1.255965e+002  2.948125e+001  9.000000e-001
      vertex  1.450000e+002  4.000000e+001  9.000000e-001
    endloop
  endfacet
  facet normal  0.000000e+000  0.000000e+000  1.000000e+000
    outer loop
      vertex  1.450000e+002  0.000000e+000  9.000000e-001
      vertex  1.338329e+002  2.349718e+001  9.000000e-001
      vertex  1.342015e+002  2.236255e+001  9.000000e-001
    endloop
  endfacet
  facet normal  0.000000e+000  0.000000e+000  1.000000e+000
    outer loop
      vertex  1.450000e+002  0.000000e+000  9.000000e-001
      vertex  1.342015e+002  2.236255e+001  9.000000e-001
      vertex  1.344251e+002  2.119067e+001  9.000000e-001
    endloop
  endfacet
  facet normal  0.000000e+000  0.000000e+000  1.000000e+000
    outer loop
      vertex  1.450000e+002  0.000000e+000  9.000000e-001
      vertex  1.344251e+002  2.119067e+001  9.000000e-001
      vertex  1.345000e+002  2.000000e+001  9.000000e-001
    endloop
  endfacet
  facet normal  0.000000e+000  0.000000e+000  1.000000e+000
    outer loop
      vertex  1.450000e+002  0.000000e+000  9.000000e-001
      vertex  1.345000e+002  2.000000e+001  9.000000e-001
      vertex  1.344251e+002  1.880933e+001  9.000000e-001
    endloop
  endfacet
  facet normal  0.000000e+000  0.000000e+000  1.000000e+000
    outer loop
      vertex  1.450000e+002  0.000000e+000  9.000000e-001
      vertex  1.344251e+002  1.880933e+001  9.000000e-001
      vertex  1.342015e+002  1.763745e+001  9.000000e-001
    endloop
  endfacet
  facet normal  0.000000e+000  0.000000e+000  1.000000e+000
    outer loop
      vertex  1.450000e+002  0.000000e+000  9.000000e-001
      vertex  1.342015e+002  1.763745e+001  9.000000e-001
      vertex  1.338329e+002  1.650282e+001  9.000000e-001
    endloop
  endfacet
  facet normal  0.000000e+000  0.000000e+000  1.000000e+000
    outer loop
      vertex  1.450000e+002  0.000000e+000  9.000000e-001
      vertex  1.338329e+002  1.650282e+001  9.000000e-001
      vertex  1.333249e+002  1.542334e+001  9.000000e-001
    endloop
  endfacet
  facet normal  0.000000e+000  0.000000e+000  1.000000e+000
    outer loop
      vertex  1.450000e+002  0.000000e+000  9.000000e-001
      vertex  1.333249e+002  1.542334e+001  9.000000e-001
      vertex  1.326857e+002  1.441604e+001  9.000000e-001
    endloop
  endfacet
  facet normal  0.000000e+000  0.000000e+000  1.000000e+000
    outer loop
      vertex  1.450000e+002  0.000000e+000  9.000000e-001
      vertex  1.326857e+002  1.441604e+001  9.000000e-001
      vertex  1.319252e+002  1.349680e+001  9.000000e-001
    endloop
  endfacet
  facet normal  0.000000e+000  0.000000e+000  1.000000e+000
    outer loop
      vertex  1.450000e+002  0.000000e+000  9.000000e-001
      vertex  1.319252e+002  1.349680e+001  9.000000e-001
      vertex  1.310555e+002  1.268012e+001  9.000000e-001
    endloop
  endfacet
  facet normal  0.000000e+000  0.000000e+000  1.000000e+000
    outer loop
      vertex  1.450000e+002  0.000000e+000  9.000000e-001
      vertex  1.310555e+002  1.268012e+001  9.000000e-001
      vertex  1.300903e+002  1.197888e+001  9.000000e-001
    endloop
  endfacet
  facet normal  0.000000e+000  0.000000e+000  1.000000e+000
    outer loop
      vertex  1.450000e+002  0.000000e+000  9.000000e-001
      vertex  1.300903e+002  1.197888e+001  9.000000e-001
      vertex  1.290449e+002  1.140414e+001  9.000000e-001
    endloop
  endfacet
  facet normal  0.000000e+000  0.000000e+000  1.000000e+000
    outer loop
      vertex  1.450000e+002  0.000000e+000  9.000000e-001
      vertex  1.290449e+002  1.140414e+001  9.000000e-001
      vertex  1.279357e+002  1.096496e+001  9.000000e-001
    endloop
  endfacet
  facet normal  0.000000e+000  0.000000e+000  1.000000e+000
    outer loop
      vertex  1.450000e+002  0.000000e+000  9.000000e-001
      vertex  1.279357e+002  1.096496e+001  9.000000e-001
      vertex  1.267801e+002  1.066827e+001  9.000000e-001
    endloop
  endfacet
  facet normal  0.000000e+000  0.000000e+000  1.000000e+000
    outer loop
      vertex  1.450000e+002  0.000000e+000  9.000000e-001
      vertex  1.267801e+002  1.066827e+001  9.000000e-001
      vertex  1.255965e+002  1.051875e+001  9.000000e-001
    endloop
  endfacet
  facet normal  -0.000000e+000  0.000000e+000  9.999999e-001
    outer loop
      vertex  1.450000e+002  4.000000e+001  9.000000e-001
      vertex  1.255965e+002  2.948125e+001  9.000000e-001
      vertex  1.267801e+002  2.933173e+001  9.000000e-001
    endloop
  endfacet
  facet normal  -0.000000e+000  0.000000e+000  1.000000e+000
    outer loop
      vertex  1.450000e+002  4.000000e+001  9.000000e-001
      vertex  1.267801e+002  2.933173e+001  9.000000e-001
      vertex  1.279357e+002  2.903504e+001  9.000000e-001
    endloop
  endfacet
  facet normal  -0.000000e+000  0.000000e+000  1.000000e+000
    outer loop
      vertex  1.450000e+002  4.000000e+001  9.000000e-001
      vertex  1.279357e+002  2.903504e+001  9.000000e-001
      vertex  1.290449e+002  2.859586e+001  9.000000e-001
    endloop
  endfacet
  facet normal  -0.000000e+000  0.000000e+000  1.000000e+000
    outer loop
      vertex  1.450000e+002  4.000000e+001  9.000000e-001
      vertex  1.290449e+002  2.859586e+001  9.000000e-001
      vertex  1.300903e+002  2.802111e+001  9.000000e-001
    endloop
  endfacet
  facet normal  -0.000000e+000  0.000000e+000  1.000000e+000
    outer loop
      vertex  1.450000e+002  4.000000e+001  9.000000e-001
      vertex  1.300903e+002  2.802111e+001  9.000000e-001
      vertex  1.310555e+002  2.731988e+001  9.000000e-001
    endloop
  endfacet
  facet normal  -0.000000e+000  0.000000e+000  9.999999e-001
    outer loop
      vertex  1.450000e+002  4.000000e+001  9.000000e-001
      vertex  1.310555e+002  2.731988e+001  9.000000e-001
      vertex  1.319252e+002  2.650320e+001  9.000000e-001
    endloop
  endfacet
  facet normal  -0.000000e+000  0.000000e+000  1.000000e+000
    outer loop
      vertex  1.450000e+002  4.000000e+001  9.000000e-001
      vertex  1.319252e+002  2.650320e+001  9.000000e-001
      vertex  1.326857e+002  2.558396e+001  9.000000e-001
    endloop
  endfacet
  facet normal  -0.000000e+000  0.000000e+000  1.000000e+000
    outer loop
      vertex  1.450000e+002  4.000000e+001  9.000000e-001
      vertex  1.326857e+002  2.558396e+001  9.000000e-001
      vertex  1.333249e+002  2.457666e+001  9.000000e-001
    endloop
  endfacet
  facet normal  -0.000000e+000  0.000000e+000  1.000000e+000
    outer loop
      vertex  1.450000e+002  4.000000e+001  9.000000e-001
      vertex  1.333249e+002  2.457666e+001  9.000000e-001
      vertex  1.338329e+002  2.349718e+001  9.000000e-001
    endloop
  endfacet
  facet normal  -0.000000e+000  0.000000e+000  1.000000e+000
    outer loop
      vertex  1.450000e+002  4.000000e+001  9.000000e-001
      vertex  1.338329e+002  2.349718e+001  9.000000e-001
      vertex  1.450000e+002  0.000000e+000  9.000000e-001
    endloop
  endfacet
  facet normal -7.071067e-001  0.000000e+000 -7.071067e-001
    outer loop
      vertex -1.421085e-014  4.000000e+001  9.000000e-001
      vertex  9.000000e-001  4.000000e+001  0.000000e+000
      vertex -1.421085e-014  0.000000e+000  9.000000e-001
    endloop
  endfacet
  facet normal -7.071067e-001  0.000000e+000 -7.071067e-001
    outer loop
      vertex -1.421085e-014  0.000000e+000  9.000000e-001
      vertex  9.000000e-001  4.000000e+001  0.000000e+000
      vertex  9.000000e-001  0.000000e+000  0.000000e+000
    endloop
  endfacet
  facet normal  1.000000e+000  0.000000e+000  0.000000e+000
    outer loop
      vertex  3.500000e+001  3.450000e+001  1.110223e-016
      vertex  3.500000e+001  3.450000e+001  9.000000e-001
      vertex  3.500000e+001  5.500000e+000  1.110223e-016
    endloop
  endfacet
  facet normal  1.000000e+000  0.000000e+000  0.000000e+000
    outer loop
      vertex  3.500000e+001  5.500000e+000  1.110223e-016
      vertex  3.500000e+001  3.450000e+001  9.000000e-001
      vertex  3.500000e+001  5.500000e+000  9.000000e-001
    endloop
  endfacet
  facet normal  0.000000e+000  1.000000e+000  0.000000e+000
    outer loop
      vertex  1.020000e+002  5.500000e+000  1.110223e-016
      vertex  3.500000e+001  5.500000e+000  1.110223e-016
      vertex  1.020000e+002  5.500000e+000  9.000000e-001
    endloop
  endfacet
  facet normal  0.000000e+000  1.000000e+000  0.000000e+000
    outer loop
      vertex  1.020000e+002  5.500000e+000  9.000000e-001
      vertex  3.500000e+001  5.500000e+000  1.110223e-016
      vertex  3.500000e+001  5.500000e+000  9.000000e-001
    endloop
  endfacet
  facet normal -1.000000e+000  0.000000e+000  0.000000e+000
    outer loop
      vertex  1.020000e+002  5.500000e+000  1.110223e-016
      vertex  1.020000e+002  5.500000e+000  9.000000e-001
      vertex  1.020000e+002  3.450000e+001  1.110223e-016
    endloop
  endfacet
  facet normal -1.000000e+000  0.000000e+000  0.000000e+000
    outer loop
      vertex  1.020000e+002  3.450000e+001  1.110223e-016
      vertex  1.020000e+002  5.500000e+000  9.000000e-001
      vertex  1.020000e+002  3.450000e+001  9.000000e-001
    endloop
  endfacet
  facet normal  0.000000e+000 -1.000000e+000  0.000000e+000
    outer loop
      vertex  3.500000e+001  3.450000e+001  1.110223e-016
      vertex  1.020000e+002  3.450000e+001  1.110223e-016
      vertex  3.500000e+001  3.450000e+001  9.000000e-001
    endloop
  endfacet
  facet normal  0.000000e+000 -1.000000e+000  0.000000e+000
    outer loop
      vertex  3.500000e+001  3.450000e+001  9.000000e-001
      vertex  1.020000e+002  3.450000e+001  1.110223e-016
      vertex  1.020000e+002  3.450000e+001  9.000000e-001
    endloop
  endfacet
  facet normal  1.253333e-001  9.921147e-001  -0.000000e+000
    outer loop
      vertex  1.244035e+002  1.051875e+001  9.000000e-001
      vertex  1.232199e+002  1.066827e+001  0.000000e+000
      vertex  1.232199e+002  1.066827e+001  9.000000e-001
    endloop
  endfacet
  facet normal  2.486895e-001  9.685832e-001  0.000000e+000
    outer loop
      vertex  1.232199e+002  1.066827e+001  9.000000e-001
      vertex  1.232199e+002  1.066827e+001  0.000000e+000
      vertex  1.220643e+002  1.096496e+001  0.000000e+000
    endloop
  endfacet
  facet normal  2.486895e-001  9.685832e-001  -0.000000e+000
    outer loop
      vertex  1.232199e+002  1.066827e+001  9.000000e-001
      vertex  1.220643e+002  1.096496e+001  0.000000e+000
      vertex  1.220643e+002  1.096496e+001  9.000000e-001
    endloop
  endfacet
  facet normal  3.681239e-001  9.297767e-001  0.000000e+000
    outer loop
      vertex  1.220643e+002  1.096496e+001  9.000000e-001
      vertex  1.220643e+002  1.096496e+001  0.000000e+000
      vertex  1.209551e+002  1.140414e+001  0.000000e+000
    endloop
  endfacet
  facet normal  3.681239e-001  9.297767e-001  -0.000000e+000
    outer loop
      vertex  1.220643e+002  1.096496e+001  9.000000e-001
      vertex  1.209551e+002  1.140414e+001  0.000000e+000
      vertex  1.209551e+002  1.140414e+001  9.000000e-001
    endloop
  endfacet
  facet normal  4.817545e-001  8.763062e-001  0.000000e+000
    outer loop
      vertex  1.209551e+002  1.140414e+001  9.000000e-001
      vertex  1.209551e+002  1.140414e+001  0.000000e+000
      vertex  1.199096e+002  1.197888e+001  0.000000e+000
    endloop
  endfacet
  facet normal  4.817545e-001  8.763062e-001  -0.000000e+000
    outer loop
      vertex  1.209551e+002  1.140414e+001  9.000000e-001
      vertex  1.199096e+002  1.197888e+001  0.000000e+000
      vertex  1.199096e+002  1.197888e+001  9.000000e-001
    endloop
  endfacet
  facet normal  5.877860e-001  8.090165e-001  0.000000e+000
    outer loop
      vertex  1.199096e+002  1.197888e+001  9.000000e-001
      vertex  1.199096e+002  1.197888e+001  0.000000e+000
      vertex  1.189445e+002  1.268012e+001  0.000000e+000
    endloop
  endfacet
  facet normal  5.877860e-001  8.090165e-001  -0.000000e+000
    outer loop
      vertex  1.199096e+002  1.197888e+001  9.000000e-001
      vertex  1.189445e+002  1.268012e+001  0.000000e+000
      vertex  1.189445e+002  1.268012e+001  9.000000e-001
    endloop
  endfacet
  facet normal  6.845466e-001  7.289689e-001  0.000000e+000
    outer loop
      vertex  1.189445e+002  1.268012e+001  9.000000e-001
      vertex  1.189445e+002  1.268012e+001  0.000000e+000
      vertex  1.180748e+002  1.349680e+001  0.000000e+000
    endloop
  endfacet
  facet normal  6.845466e-001  7.289689e-001  -0.000000e+000
    outer loop
      vertex  1.189445e+002  1.268012e+001  9.000000e-001
      vertex  1.180748e+002  1.349680e+001  0.000000e+000
      vertex  1.180748e+002  1.349680e+001  9.000000e-001
    endloop
  endfacet
  facet normal  7.705132e-001  6.374240e-001  0.000000e+000
    outer loop
      vertex  1.180748e+002  1.349680e+001  9.000000e-001
      vertex  1.180748e+002  1.349680e+001  0.000000e+000
      vertex  1.173143e+002  1.441604e+001  0.000000e+000
    endloop
  endfacet
  facet normal  7.705132e-001  6.374240e-001  -0.000000e+000
    outer loop
      vertex  1.180748e+002  1.349680e+001  9.000000e-001
      vertex  1.173143e+002  1.441604e+001  0.000000e+000
      vertex  1.173143e+002  1.441604e+001  9.000000e-001
    endloop
  endfacet
  facet normal  8.443279e-001  5.358267e-001  0.000000e+000
    outer loop
      vertex  1.173143e+002  1.441604e+001  9.000000e-001
      vertex  1.173143e+002  1.441604e+001  0.000000e+000
      vertex  1.166751e+002  1.542334e+001  0.000000e+000
    endloop
  endfacet
  facet normal  8.443279e-001  5.358267e-001  -0.000000e+000
    outer loop
      vertex  1.173143e+002  1.441604e+001  9.000000e-001
      vertex  1.166751e+002  1.542334e+001  0.000000e+000
      vertex  1.166751e+002  1.542334e+001  9.000000e-001
    endloop
  endfacet
  facet normal  9.048265e-001  4.257804e-001  0.000000e+000
    outer loop
      vertex  1.166751e+002  1.542334e+001  9.000000e-001
      vertex  1.166751e+002  1.542334e+001  0.000000e+000
      vertex  1.161671e+002  1.650282e+001  0.000000e+000
    endloop
  endfacet
  facet normal  9.048265e-001  4.257804e-001  -0.000000e+000
    outer loop
      vertex  1.166751e+002  1.542334e+001  9.000000e-001
      vertex  1.161671e+002  1.650282e+001  0.000000e+000
      vertex  1.161671e+002  1.650282e+001  9.000000e-001
    endloop
  endfacet
  facet normal  9.510573e-001  3.090146e-001  0.000000e+000
    outer loop
      vertex  1.161671e+002  1.650282e+001  9.000000e-001
      vertex  1.161671e+002  1.650282e+001  0.000000e+000
      vertex  1.157985e+002  1.763745e+001  0.000000e+000
    endloop
  endfacet
  facet normal  9.510573e-001  3.090146e-001  -0.000000e+000
    outer loop
      vertex  1.161671e+002  1.650282e+001  9.000000e-001
      vertex  1.157985e+002  1.763745e+001  0.000000e+000
      vertex  1.157985e+002  1.763745e+001  9.000000e-001
    endloop
  endfacet
  facet normal  9.822873e-001  1.873807e-001  0.000000e+000
    outer loop
      vertex  1.157985e+002  1.763745e+001  9.000000e-001
      vertex  1.157985e+002  1.763745e+001  0.000000e+000
      vertex  1.155749e+002  1.880933e+001  0.000000e+000
    endloop
  endfacet
  facet normal  9.822873e-001  1.873807e-001  -0.000000e+000
    outer loop
      vertex  1.157985e+002  1.763745e+001  9.000000e-001
      vertex  1.155749e+002  1.880933e+001  0.000000e+000
      vertex  1.155749e+002  1.880933e+001  9.000000e-001
    endloop
  endfacet
  facet normal  9.980266e-001  6.279273e-002  0.000000e+000
    outer loop
      vertex  1.155749e+002  1.880933e+001  9.000000e-001
      vertex  1.155749e+002  1.880933e+001  0.000000e+000
      vertex  1.155000e+002  2.000000e+001  0.000000e+000
    endloop
  endfacet
  facet normal  9.980266e-001  6.279273e-002  -0.000000e+000
    outer loop
      vertex  1.155749e+002  1.880933e+001  9.000000e-001
      vertex  1.155000e+002  2.000000e+001  0.000000e+000
      vertex  1.155000e+002  2.000000e+001  9.000000e-001
    endloop
  endfacet
  facet normal  1.253333e-001  9.921147e-001  0.000000e+000
    outer loop
      vertex  1.232199e+002  1.066827e+001  0.000000e+000
      vertex  1.244035e+002  1.051875e+001  9.000000e-001
      vertex  1.244035e+002  1.051875e+001  0.000000e+000
    endloop
  endfacet
  facet normal  0.000000e+000  1.000000e+000  0.000000e+000
    outer loop
      vertex  1.244035e+002  1.051875e+001  0.000000e+000
      vertex  1.244035e+002  1.051875e+001  9.000000e-001
      vertex  1.255965e+002  1.051875e+001  9.000000e-001
    endloop
  endfacet
  facet normal  0.000000e+000  1.000000e+000  0.000000e+000
    outer loop
      vertex  1.244035e+002  1.051875e+001  0.000000e+000
      vertex  1.255965e+002  1.051875e+001  9.000000e-001
      vertex  1.255965e+002  1.051875e+001  0.000000e+000
    endloop
  endfacet
  facet normal -1.253333e-001  9.921147e-001  0.000000e+000
    outer loop
      vertex  1.255965e+002  1.051875e+001  0.000000e+000
      vertex  1.255965e+002  1.051875e+001  9.000000e-001
      vertex  1.267801e+002  1.066827e+001  9.000000e-001
    endloop
  endfacet
  facet normal -1.253333e-001  9.921147e-001  0.000000e+000
    outer loop
      vertex  1.255965e+002  1.051875e+001  0.000000e+000
      vertex  1.267801e+002  1.066827e+001  9.000000e-001
      vertex  1.267801e+002  1.066827e+001  0.000000e+000
    endloop
  endfacet
  facet normal -2.486895e-001  9.685832e-001  0.000000e+000
    outer loop
      vertex  1.267801e+002  1.066827e+001  0.000000e+000
      vertex  1.267801e+002  1.066827e+001  9.000000e-001
      vertex  1.279357e+002  1.096496e+001  9.000000e-001
    endloop
  endfacet
  facet normal -2.486895e-001  9.685832e-001  0.000000e+000
    outer loop
      vertex  1.267801e+002  1.066827e+001  0.000000e+000
      vertex  1.279357e+002  1.096496e+001  9.000000e-001
      vertex  1.279357e+002  1.096496e+001  0.000000e+000
    endloop
  endfacet
  facet normal -3.681239e-001  9.297767e-001  0.000000e+000
    outer loop
      vertex  1.279357e+002  1.096496e+001  0.000000e+000
      vertex  1.279357e+002  1.096496e+001  9.000000e-001
      vertex  1.290449e+002  1.140414e+001  9.000000e-001
    endloop
  endfacet
  facet normal -3.681239e-001  9.297767e-001  0.000000e+000
    outer loop
      vertex  1.279357e+002  1.096496e+001  0.000000e+000
      vertex  1.290449e+002  1.140414e+001  9.000000e-001
      vertex  1.290449e+002  1.140414e+001  0.000000e+000
    endloop
  endfacet
  facet normal -4.817572e-001  8.763047e-001  0.000000e+000
    outer loop
      vertex  1.290449e+002  1.140414e+001  0.000000e+000
      vertex  1.290449e+002  1.140414e+001  9.000000e-001
      vertex  1.300903e+002  1.197888e+001  9.000000e-001
    endloop
  endfacet
  facet normal -4.817572e-001  8.763047e-001  0.000000e+000
    outer loop
      vertex  1.290449e+002  1.140414e+001  0.000000e+000
      vertex  1.300903e+002  1.197888e+001  9.000000e-001
      vertex  1.300903e+002  1.197888e+001  0.000000e+000
    endloop
  endfacet
  facet normal -5.877829e-001  8.090187e-001  0.000000e+000
    outer loop
      vertex  1.300903e+002  1.197888e+001  0.000000e+000
      vertex  1.300903e+002  1.197888e+001  9.000000e-001
      vertex  1.310555e+002  1.268012e+001  9.000000e-001
    endloop
  endfacet
  facet normal -5.877829e-001  8.090187e-001  0.000000e+000
    outer loop
      vertex  1.300903e+002  1.197888e+001  0.000000e+000
      vertex  1.310555e+002  1.268012e+001  9.000000e-001
      vertex  1.310555e+002  1.268012e+001  0.000000e+000
    endloop
  endfacet
  facet normal -6.845466e-001  7.289689e-001  0.000000e+000
    outer loop
      vertex  1.310555e+002  1.268012e+001  0.000000e+000
      vertex  1.310555e+002  1.268012e+001  9.000000e-001
      vertex  1.319252e+002  1.349680e+001  9.000000e-001
    endloop
  endfacet
  facet normal -6.845466e-001  7.289689e-001  0.000000e+000
    outer loop
      vertex  1.310555e+002  1.268012e+001  0.000000e+000
      vertex  1.319252e+002  1.349680e+001  9.000000e-001
      vertex  1.319252e+002  1.349680e+001  0.000000e+000
    endloop
  endfacet
  facet normal -7.705101e-001  6.374277e-001  0.000000e+000
    outer loop
      vertex  1.319252e+002  1.349680e+001  0.000000e+000
      vertex  1.319252e+002  1.349680e+001  9.000000e-001
      vertex  1.326857e+002  1.441604e+001  9.000000e-001
    endloop
  endfacet
  facet normal -7.705101e-001  6.374277e-001  0.000000e+000
    outer loop
      vertex  1.319252e+002  1.349680e+001  0.000000e+000
      vertex  1.326857e+002  1.441604e+001  9.000000e-001
      vertex  1.326857e+002  1.441604e+001  0.000000e+000
    endloop
  endfacet
  facet normal -8.443279e-001  5.358267e-001  0.000000e+000
    outer loop
      vertex  1.326857e+002  1.441604e+001  0.000000e+000
      vertex  1.326857e+002  1.441604e+001  9.000000e-001
      vertex  1.333249e+002  1.542334e+001  9.000000e-001
    endloop
  endfacet
  facet normal -8.443279e-001  5.358267e-001  0.000000e+000
    outer loop
      vertex  1.326857e+002  1.441604e+001  0.000000e+000
      vertex  1.333249e+002  1.542334e+001  9.000000e-001
      vertex  1.333249e+002  1.542334e+001  0.000000e+000
    endloop
  endfacet
  facet normal -9.048314e-001  4.257699e-001  0.000000e+000
    outer loop
      vertex  1.333249e+002  1.542334e+001  0.000000e+000
      vertex  1.333249e+002  1.542334e+001  9.000000e-001
      vertex  1.338329e+002  1.650282e+001  9.000000e-001
    endloop
  endfacet
  facet normal -9.048314e-001  4.257699e-001  0.000000e+000
    outer loop
      vertex  1.333249e+002  1.542334e+001  0.000000e+000
      vertex  1.338329e+002  1.650282e+001  9.000000e-001
      vertex  1.338329e+002  1.650282e+001  0.000000e+000
    endloop
  endfacet
  facet normal -9.510554e-001  3.090204e-001  0.000000e+000
    outer loop
      vertex  1.338329e+002  1.650282e+001  0.000000e+000
      vertex  1.338329e+002  1.650282e+001  9.000000e-001
      vertex  1.342015e+002  1.763745e+001  9.000000e-001
    endloop
  endfacet
  facet normal -9.510554e-001  3.090204e-001  0.000000e+000
    outer loop
      vertex  1.338329e+002  1.650282e+001  0.000000e+000
      vertex  1.342015e+002  1.763745e+001  9.000000e-001
      vertex  1.342015e+002  1.763745e+001  0.000000e+000
    endloop
  endfacet
  facet normal -9.822862e-001  1.873869e-001  0.000000e+000
    outer loop
      vertex  1.342015e+002  1.763745e+001  0.000000e+000
      vertex  1.342015e+002  1.763745e+001  9.000000e-001
      vertex  1.344251e+002  1.880933e+001  9.000000e-001
    endloop
  endfacet
  facet normal -9.822862e-001  1.873869e-001  0.000000e+000
    outer loop
      vertex  1.342015e+002  1.763745e+001  0.000000e+000
      vertex  1.344251e+002  1.880933e+001  9.000000e-001
      vertex  1.344251e+002  1.880933e+001  0.000000e+000
    endloop
  endfacet
  facet normal -9.980270e-001  6.278637e-002  0.000000e+000
    outer loop
      vertex  1.344251e+002  1.880933e+001  0.000000e+000
      vertex  1.344251e+002  1.880933e+001  9.000000e-001
      vertex  1.345000e+002  2.000000e+001  9.000000e-001
    endloop
  endfacet
  facet normal -9.980270e-001  6.278637e-002  0.000000e+000
    outer loop
      vertex  1.344251e+002  1.880933e+001  0.000000e+000
      vertex  1.345000e+002  2.000000e+001  9.000000e-001
      vertex  1.345000e+002  2.000000e+001  0.000000e+000
    endloop
  endfacet
  facet normal -1.253349e-001 -9.921145e-001  0.000000e+000
    outer loop
      vertex  1.255965e+002  2.948125e+001  9.000000e-001
      vertex  1.267801e+002  2.933173e+001  0.000000e+000
      vertex  1.267801e+002  2.933173e+001  9.000000e-001
    endloop
  endfacet
  facet normal -2.486895e-001 -9.685832e-001  -0.000000e+000
    outer loop
      vertex  1.267801e+002  2.933173e+001  9.000000e-001
      vertex  1.267801e+002  2.933173e+001  0.000000e+000
      vertex  1.279357e+002  2.903504e+001  0.000000e+000
    endloop
  endfacet
  facet normal -2.486895e-001 -9.685832e-001  0.000000e+000
    outer loop
      vertex  1.267801e+002  2.933173e+001  9.000000e-001
      vertex  1.279357e+002  2.903504e+001  0.000000e+000
      vertex  1.279357e+002  2.903504e+001  9.000000e-001
    endloop
  endfacet
  facet normal -3.681225e-001 -9.297773e-001  -0.000000e+000
    outer loop
      vertex  1.279357e+002  2.903504e+001  9.000000e-001
      vertex  1.279357e+002  2.903504e+001  0.000000e+000
      vertex  1.290449e+002  2.859586e+001  0.000000e+000
    endloop
  endfacet
  facet normal -3.681225e-001 -9.297773e-001  0.000000e+000
    outer loop
      vertex  1.279357e+002  2.903504e+001  9.000000e-001
      vertex  1.290449e+002  2.859586e+001  0.000000e+000
      vertex  1.290449e+002  2.859586e+001  9.000000e-001
    endloop
  endfacet
  facet normal -4.817584e-001 -8.763040e-001  -0.000000e+000
    outer loop
      vertex  1.290449e+002  2.859586e+001  9.000000e-001
      vertex  1.290449e+002  2.859586e+001  0.000000e+000
      vertex  1.300903e+002  2.802111e+001  0.000000e+000
    endloop
  endfacet
  facet normal -4.817584e-001 -8.763040e-001  0.000000e+000
    outer loop
      vertex  1.290449e+002  2.859586e+001  9.000000e-001
      vertex  1.300903e+002  2.802111e+001  0.000000e+000
      vertex  1.300903e+002  2.802111e+001  9.000000e-001
    endloop
  endfacet
  facet normal -5.877823e-001 -8.090190e-001  -0.000000e+000
    outer loop
      vertex  1.300903e+002  2.802111e+001  9.000000e-001
      vertex  1.300903e+002  2.802111e+001  0.000000e+000
      vertex  1.310555e+002  2.731988e+001  0.000000e+000
    endloop
  endfacet
  facet normal -5.877823e-001 -8.090190e-001  0.000000e+000
    outer loop
      vertex  1.300903e+002  2.802111e+001  9.000000e-001
      vertex  1.310555e+002  2.731988e+001  0.000000e+000
      vertex  1.310555e+002  2.731988e+001  9.000000e-001
    endloop
  endfacet
  facet normal -6.845472e-001 -7.289686e-001  -0.000000e+000
    outer loop
      vertex  1.310555e+002  2.731988e+001  9.000000e-001
      vertex  1.310555e+002  2.731988e+001  0.000000e+000
      vertex  1.319252e+002  2.650320e+001  0.000000e+000
    endloop
  endfacet
  facet normal -6.845472e-001 -7.289686e-001  0.000000e+000
    outer loop
      vertex  1.310555e+002  2.731988e+001  9.000000e-001
      vertex  1.319252e+002  2.650320e+001  0.000000e+000
      vertex  1.319252e+002  2.650320e+001  9.000000e-001
    endloop
  endfacet
  facet normal -7.705098e-001 -6.374282e-001  -0.000000e+000
    outer loop
      vertex  1.319252e+002  2.650320e+001  9.000000e-001
      vertex  1.319252e+002  2.650320e+001  0.000000e+000
      vertex  1.326857e+002  2.558396e+001  0.000000e+000
    endloop
  endfacet
  facet normal -7.705098e-001 -6.374282e-001  0.000000e+000
    outer loop
      vertex  1.319252e+002  2.650320e+001  9.000000e-001
      vertex  1.326857e+002  2.558396e+001  0.000000e+000
      vertex  1.326857e+002  2.558396e+001  9.000000e-001
    endloop
  endfacet
  facet normal -8.443279e-001 -5.358267e-001  -0.000000e+000
    outer loop
      vertex  1.326857e+002  2.558396e+001  9.000000e-001
      vertex  1.326857e+002  2.558396e+001  0.000000e+000
      vertex  1.333249e+002  2.457666e+001  0.000000e+000
    endloop
  endfacet
  facet normal -8.443279e-001 -5.358267e-001  0.000000e+000
    outer loop
      vertex  1.326857e+002  2.558396e+001  9.000000e-001
      vertex  1.333249e+002  2.457666e+001  0.000000e+000
      vertex  1.333249e+002  2.457666e+001  9.000000e-001
    endloop
  endfacet
  facet normal -9.048314e-001 -4.257699e-001  -0.000000e+000
    outer loop
      vertex  1.333249e+002  2.457666e+001  9.000000e-001
      vertex  1.333249e+002  2.457666e+001  0.000000e+000
      vertex  1.338329e+002  2.349718e+001  0.000000e+000
    endloop
  endfacet
  facet normal -9.048314e-001 -4.257699e-001  0.000000e+000
    outer loop
      vertex  1.333249e+002  2.457666e+001  9.000000e-001
      vertex  1.338329e+002  2.349718e+001  0.000000e+000
      vertex  1.338329e+002  2.349718e+001  9.000000e-001
    endloop
  endfacet
  facet normal -9.510554e-001 -3.090204e-001  -0.000000e+000
    outer loop
      vertex  1.338329e+002  2.349718e+001  9.000000e-001
      vertex  1.338329e+002  2.349718e+001  0.000000e+000
      vertex  1.342015e+002  2.236255e+001  0.000000e+000
    endloop
  endfacet
  facet normal -9.510554e-001 -3.090204e-001  0.000000e+000
    outer loop
      vertex  1.338329e+002  2.349718e+001  9.000000e-001
      vertex  1.342015e+002  2.236255e+001  0.000000e+000
      vertex  1.342015e+002  2.236255e+001  9.000000e-001
    endloop
  endfacet
  facet normal -9.822862e-001 -1.873869e-001  -0.000000e+000
    outer loop
      vertex  1.342015e+002  2.236255e+001  9.000000e-001
      vertex  1.342015e+002  2.236255e+001  0.000000e+000
      vertex  1.344251e+002  2.119067e+001  0.000000e+000
    endloop
  endfacet
  facet normal -9.822862e-001 -1.873869e-001  0.000000e+000
    outer loop
      vertex  1.342015e+002  2.236255e+001  9.000000e-001
      vertex  1.344251e+002  2.119067e+001  0.000000e+000
      vertex  1.344251e+002  2.119067e+001  9.000000e-001
    endloop
  endfacet
  facet normal -9.980270e-001 -6.278637e-002  -0.000000e+000
    outer loop
      vertex  1.344251e+002  2.119067e+001  9.000000e-001
      vertex  1.344251e+002  2.119067e+001  0.000000e+000
      vertex  1.345000e+002  2.000000e+001  0.000000e+000
    endloop
  endfacet
  facet normal -9.980270e-001 -6.278637e-002  0.000000e+000
    outer loop
      vertex  1.344251e+002  2.119067e+001  9.000000e-001
      vertex  1.345000e+002  2.000000e+001  0.000000e+000
      vertex  1.345000e+002  2.000000e+001  9.000000e-001
    endloop
  endfacet
  facet normal -1.253349e-001 -9.921145e-001  -0.000000e+000
    outer loop
      vertex  1.267801e+002  2.933173e+001  0.000000e+000
      vertex  1.255965e+002  2.948125e+001  9.000000e-001
      vertex  1.255965e+002  2.948125e+001  0.000000e+000
    endloop
  endfacet
  facet normal  0.000000e+000 -1.000000e+000  0.000000e+000
    outer loop
      vertex  1.255965e+002  2.948125e+001  0.000000e+000
      vertex  1.255965e+002  2.948125e+001  9.000000e-001
      vertex  1.244035e+002  2.948125e+001  9.000000e-001
    endloop
  endfacet
  facet normal  0.000000e+000 -1.000000e+000  0.000000e+000
    outer loop
      vertex  1.255965e+002  2.948125e+001  0.000000e+000
      vertex  1.244035e+002  2.948125e+001  9.000000e-001
      vertex  1.244035e+002  2.948125e+001  0.000000e+000
    endloop
  endfacet
  facet normal  1.253349e-001 -9.921145e-001  0.000000e+000
    outer loop
      vertex  1.244035e+002  2.948125e+001  0.000000e+000
      vertex  1.244035e+002  2.948125e+001  9.000000e-001
      vertex  1.232199e+002  2.933173e+001  9.000000e-001
    endloop
  endfacet
  facet normal  1.253349e-001 -9.921145e-001  0.000000e+000
    outer loop
      vertex  1.244035e+002  2.948125e+001  0.000000e+000
      vertex  1.232199e+002  2.933173e+001  9.000000e-001
      vertex  1.232199e+002  2.933173e+001  0.000000e+000
    endloop
  endfacet
  facet normal  2.486895e-001 -9.685832e-001  0.000000e+000
    outer loop
      vertex  1.232199e+002  2.933173e+001  0.000000e+000
      vertex  1.232199e+002  2.933173e+001  9.000000e-001
      vertex  1.220643e+002  2.903504e+001  9.000000e-001
    endloop
  endfacet
  facet normal  2.486895e-001 -9.685832e-001  0.000000e+000
    outer loop
      vertex  1.232199e+002  2.933173e+001  0.000000e+000
      vertex  1.220643e+002  2.903504e+001  9.000000e-001
      vertex  1.220643e+002  2.903504e+001  0.000000e+000
    endloop
  endfacet
  facet normal  3.681225e-001 -9.297773e-001  0.000000e+000
    outer loop
      vertex  1.220643e+002  2.903504e+001  0.000000e+000
      vertex  1.220643e+002  2.903504e+001  9.000000e-001
      vertex  1.209551e+002  2.859586e+001  9.000000e-001
    endloop
  endfacet
  facet normal  3.681225e-001 -9.297773e-001  0.000000e+000
    outer loop
      vertex  1.220643e+002  2.903504e+001  0.000000e+000
      vertex  1.209551e+002  2.859586e+001  9.000000e-001
      vertex  1.209551e+002  2.859586e+001  0.000000e+000
    endloop
  endfacet
  facet normal  4.817558e-001 -8.763055e-001  0.000000e+000
    outer loop
      vertex  1.209551e+002  2.859586e+001  0.000000e+000
      vertex  1.209551e+002  2.859586e+001  9.000000e-001
      vertex  1.199096e+002  2.802111e+001  9.000000e-001
    endloop
  endfacet
  facet normal  4.817558e-001 -8.763055e-001  0.000000e+000
    outer loop
      vertex  1.209551e+002  2.859586e+001  0.000000e+000
      vertex  1.199096e+002  2.802111e+001  9.000000e-001
      vertex  1.199096e+002  2.802111e+001  0.000000e+000
    endloop
  endfacet
  facet normal  5.877854e-001 -8.090169e-001  0.000000e+000
    outer loop
      vertex  1.199096e+002  2.802111e+001  0.000000e+000
      vertex  1.199096e+002  2.802111e+001  9.000000e-001
      vertex  1.189445e+002  2.731988e+001  9.000000e-001
    endloop
  endfacet
  facet normal  5.877854e-001 -8.090169e-001  0.000000e+000
    outer loop
      vertex  1.199096e+002  2.802111e+001  0.000000e+000
      vertex  1.189445e+002  2.731988e+001  9.000000e-001
      vertex  1.189445e+002  2.731988e+001  0.000000e+000
    endloop
  endfacet
  facet normal  6.845472e-001 -7.289686e-001  0.000000e+000
    outer loop
      vertex  1.189445e+002  2.731988e+001  0.000000e+000
      vertex  1.189445e+002  2.731988e+001  9.000000e-001
      vertex  1.180748e+002  2.650320e+001  9.000000e-001
    endloop
  endfacet
  facet normal  6.845472e-001 -7.289686e-001  0.000000e+000
    outer loop
      vertex  1.189445e+002  2.731988e+001  0.000000e+000
      vertex  1.180748e+002  2.650320e+001  9.000000e-001
      vertex  1.180748e+002  2.650320e+001  0.000000e+000
    endloop
  endfacet
  facet normal  7.705129e-001 -6.374243e-001  0.000000e+000
    outer loop
      vertex  1.180748e+002  2.650320e+001  0.000000e+000
      vertex  1.180748e+002  2.650320e+001  9.000000e-001
      vertex  1.173143e+002  2.558396e+001  9.000000e-001
    endloop
  endfacet
  facet normal  7.705129e-001 -6.374243e-001  0.000000e+000
    outer loop
      vertex  1.180748e+002  2.650320e+001  0.000000e+000
      vertex  1.173143e+002  2.558396e+001  9.000000e-001
      vertex  1.173143e+002  2.558396e+001  0.000000e+000
    endloop
  endfacet
  facet normal  8.443279e-001 -5.358267e-001  0.000000e+000
    outer loop
      vertex  1.173143e+002  2.558396e+001  0.000000e+000
      vertex  1.173143e+002  2.558396e+001  9.000000e-001
      vertex  1.166751e+002  2.457666e+001  9.000000e-001
    endloop
  endfacet
  facet normal  8.443279e-001 -5.358267e-001  0.000000e+000
    outer loop
      vertex  1.173143e+002  2.558396e+001  0.000000e+000
      vertex  1.166751e+002  2.457666e+001  9.000000e-001
      vertex  1.166751e+002  2.457666e+001  0.000000e+000
    endloop
  endfacet
  facet normal  9.048265e-001 -4.257804e-001  0.000000e+000
    outer loop
      vertex  1.166751e+002  2.457666e+001  0.000000e+000
      vertex  1.166751e+002  2.457666e+001  9.000000e-001
      vertex  1.161671e+002  2.349718e+001  9.000000e-001
    endloop
  endfacet
  facet normal  9.048265e-001 -4.257804e-001  0.000000e+000
    outer loop
      vertex  1.166751e+002  2.457666e+001  0.000000e+000
      vertex  1.161671e+002  2.349718e+001  9.000000e-001
      vertex  1.161671e+002  2.349718e+001  0.000000e+000
    endloop
  endfacet
  facet normal  9.510573e-001 -3.090146e-001  0.000000e+000
    outer loop
      vertex  1.161671e+002  2.349718e+001  0.000000e+000
      vertex  1.161671e+002  2.349718e+001  9.000000e-001
      vertex  1.157985e+002  2.236255e+001  9.000000e-001
    endloop
  endfacet
  facet normal  9.510573e-001 -3.090146e-001  0.000000e+000
    outer loop
      vertex  1.161671e+002  2.349718e+001  0.000000e+000
      vertex  1.157985e+002  2.236255e+001  9.000000e-001
      vertex  1.157985e+002  2.236255e+001  0.000000e+000
    endloop
  endfacet
  facet normal  9.822873e-001 -1.873807e-001  0.000000e+000
    outer loop
      vertex  1.157985e+002  2.236255e+001  0.000000e+000
      vertex  1.157985e+002  2.236255e+001  9.000000e-001
      vertex  1.155749e+002  2.119067e+001  9.000000e-001
    endloop
  endfacet
  facet normal  9.822873e-001 -1.873807e-001  0.000000e+000
    outer loop
      vertex  1.157985e+002  2.236255e+001  0.000000e+000
      vertex  1.155749e+002  2.119067e+001  9.000000e-001
      vertex  1.155749e+002  2.119067e+001  0.000000e+000
    endloop
  endfacet
  facet normal  9.980266e-001 -6.279273e-002  0.000000e+000
    outer loop
      vertex  1.155749e+002  2.119067e+001  0.000000e+000
      vertex  1.155749e+002  2.119067e+001  9.000000e-001
      vertex  1.155000e+002  2.000000e+001  9.000000e-001
    endloop
  endfacet
  facet normal  9.980266e-001 -6.279273e-002  0.000000e+000
    outer loop
      vertex  1.155749e+002  2.119067e+001  0.000000e+000
      vertex  1.155000e+002  2.000000e+001  9.000000e-001
      vertex  1.155000e+002  2.000000e+001  0.000000e+000
    endloop
  endfacet
endsolid CATIA STL
